<?xml version="1.0" encoding="UTF-8"?>
<!-- Created by Svg.la -->
<svg version="1.1" xmlns="http://www.w3.org/2000/svg" width="128" height="128">
<path d="M0 0 C4.632 2.265 4.632 2.265 6 5 C6.259 9.051 6.304 10.543 4 14 C4.822 14.009 5.644 14.019 6.491 14.028 C10.224 14.082 13.955 14.166 17.688 14.25 C18.981 14.264 20.275 14.278 21.607 14.293 C22.855 14.325 24.102 14.357 25.387 14.391 C26.534 14.412 27.68 14.433 28.862 14.454 C32.613 15.107 34.294 16.373 37 19 C38.361 21.721 38.142 23.885 38.161 26.931 C38.171 28.176 38.18 29.421 38.19 30.704 C38.195 32.069 38.199 33.435 38.203 34.801 C38.209 36.198 38.215 37.596 38.22 38.994 C38.231 41.927 38.237 44.86 38.24 47.793 C38.246 51.545 38.27 55.298 38.298 59.05 C38.317 61.939 38.322 64.827 38.324 67.716 C38.327 69.099 38.335 70.482 38.348 71.865 C38.365 73.804 38.361 75.742 38.356 77.681 C38.362 79.334 38.362 79.334 38.367 81.02 C37.947 84.426 37.043 86.265 35 89 C31.466 91.356 29.96 91.262 25.772 91.291 C23.844 91.31 23.844 91.31 21.878 91.329 C20.473 91.332 19.069 91.334 17.664 91.336 C16.223 91.342 14.782 91.349 13.341 91.356 C10.32 91.368 7.299 91.372 4.277 91.371 C0.411 91.37 -3.454 91.398 -7.32 91.432 C-10.297 91.454 -13.274 91.458 -16.251 91.457 C-17.676 91.46 -19.1 91.469 -20.525 91.484 C-22.521 91.504 -24.517 91.495 -26.513 91.486 C-27.648 91.489 -28.782 91.492 -29.951 91.494 C-33.669 90.891 -35.325 89.598 -38 87 C-39.375 84.251 -39.135 82.038 -39.145 78.961 C-39.152 77.693 -39.158 76.425 -39.165 75.118 C-39.166 73.727 -39.167 72.336 -39.168 70.945 C-39.171 69.523 -39.175 68.1 -39.178 66.678 C-39.184 63.694 -39.186 60.709 -39.185 57.725 C-39.185 53.903 -39.199 50.081 -39.216 46.259 C-39.227 43.319 -39.229 40.38 -39.229 37.441 C-39.23 36.032 -39.234 34.623 -39.242 33.214 C-39.252 31.242 -39.248 29.27 -39.243 27.297 C-39.244 26.175 -39.246 25.053 -39.247 23.897 C-39.002 21.027 -38.564 19.392 -37 17 C-34.187 15.126 -31.898 14.746 -28.559 14.691 C-27.312 14.654 -27.312 14.654 -26.041 14.615 C-24.302 14.58 -22.562 14.549 -20.822 14.521 C-19.993 14.495 -19.163 14.469 -18.309 14.441 C-17.176 14.421 -17.176 14.421 -16.021 14.401 C-13.446 13.89 -12.535 13.109 -11 11 C-11 9.845 -11 8.69 -11 7.5 C-11 4 -11 4 -9.625 2.125 C-6.305 -0.173 -4.028 -0.316 0 0 Z " fill="#FEDD7E" transform="translate(64,16)"/>
<path d="M0 0 C4.632 2.265 4.632 2.265 6 5 C6.259 9.051 6.304 10.543 4 14 C3.34 14 2.68 14 2 14 C2.495 14.681 2.99 15.361 3.5 16.062 C5.361 19.708 5.515 21.954 5 26 C3.438 28.438 3.438 28.438 1 30 C-0.196 29.979 -1.392 29.959 -2.625 29.938 C-3.739 29.958 -4.852 29.979 -6 30 C-7.545 32.401 -7.545 32.401 -8 35 C-10 34.812 -10 34.812 -12 34 C-11.979 33.258 -11.959 32.515 -11.938 31.75 C-11.958 30.843 -11.979 29.935 -12 29 C-12.825 28.216 -13.65 27.433 -14.5 26.625 C-17 24 -17 24 -17.688 20.5 C-17 17 -17 17 -14 14.562 C-10.843 12.434 -10.843 12.434 -10.707 10.02 C-10.742 9.312 -10.777 8.604 -10.812 7.875 C-11 4 -11 4 -9.625 2.062 C-6.267 -0.133 -4.019 -0.315 0 0 Z " fill="#EE5740" transform="translate(64,16)"/>
<path d="M0 0 C0.33 0 0.66 0 1 0 C1.087 3.896 1.141 7.791 1.188 11.688 C1.213 12.79 1.238 13.893 1.264 15.029 C1.273 16.096 1.283 17.163 1.293 18.262 C1.309 19.241 1.324 20.22 1.341 21.229 C0.936 24.523 -0.042 26.341 -2 29 C-5.534 31.356 -7.04 31.262 -11.228 31.291 C-12.513 31.303 -13.798 31.316 -15.122 31.329 C-16.527 31.332 -17.931 31.334 -19.336 31.336 C-20.777 31.342 -22.218 31.349 -23.659 31.356 C-26.68 31.368 -29.701 31.372 -32.723 31.371 C-36.589 31.37 -40.454 31.398 -44.32 31.432 C-47.297 31.454 -50.274 31.458 -53.251 31.457 C-54.676 31.46 -56.1 31.469 -57.525 31.484 C-59.521 31.504 -61.517 31.495 -63.513 31.486 C-64.648 31.489 -65.782 31.492 -66.951 31.494 C-70.661 30.893 -72.402 29.678 -75 27 C-74.67 26.34 -74.34 25.68 -74 25 C-73.594 25.485 -73.187 25.97 -72.769 26.47 C-70.593 28.352 -69.546 28.407 -66.703 28.483 C-65.405 28.527 -65.405 28.527 -64.081 28.571 C-63.147 28.583 -62.213 28.596 -61.25 28.609 C-60.282 28.626 -59.313 28.644 -58.315 28.661 C-56.261 28.69 -54.206 28.709 -52.152 28.721 C-49.038 28.75 -45.929 28.843 -42.816 28.938 C-30.263 29.311 -30.263 29.311 -19.434 23.801 C-17.911 22.243 -16.426 20.646 -15 19 C-13.898 17.986 -12.787 16.983 -11.66 15.996 C-6.537 10.95 -2.763 6.656 0 0 Z " fill="#FAB63A" transform="translate(101,76)"/>
<path d="M0 0 C1.792 0.017 1.792 0.017 3.621 0.035 C5.417 0.049 5.417 0.049 7.25 0.062 C8.177 0.074 9.104 0.086 10.059 0.098 C9.729 1.088 9.399 2.078 9.059 3.098 C8.399 3.098 7.739 3.098 7.059 3.098 C7.554 3.778 8.049 4.459 8.559 5.16 C10.42 8.805 10.574 11.052 10.059 15.098 C8.496 17.535 8.496 17.535 6.059 19.098 C4.862 19.077 3.666 19.056 2.434 19.035 C1.32 19.056 0.206 19.076 -0.941 19.098 C-2.486 21.499 -2.486 21.499 -2.941 24.098 C-4.941 23.91 -4.941 23.91 -6.941 23.098 C-7.191 20.723 -7.191 20.723 -6.941 18.098 C-6.941 17.108 -6.941 16.118 -6.941 15.098 C-3.641 15.758 -0.341 16.418 3.059 17.098 C3.059 16.108 3.059 15.118 3.059 14.098 C2.089 13.933 1.12 13.768 0.121 13.598 C-0.89 13.103 -1.9 12.608 -2.941 12.098 C-3.886 8.45 -4.08 4.857 -3.941 1.098 C-2.941 0.098 -2.941 0.098 0 0 Z " fill="#C32A13" transform="translate(58.94140625,26.90234375)"/>
<path d="M0 0 C2.05 -0.508 2.05 -0.508 4.779 -0.518 C5.797 -0.53 6.815 -0.543 7.863 -0.556 C8.971 -0.548 10.078 -0.54 11.219 -0.531 C12.347 -0.535 13.475 -0.539 14.638 -0.543 C17.028 -0.546 19.419 -0.538 21.81 -0.521 C25.485 -0.5 29.157 -0.521 32.832 -0.547 C35.148 -0.544 37.465 -0.539 39.781 -0.531 C40.889 -0.539 41.996 -0.547 43.137 -0.556 C44.154 -0.543 45.172 -0.531 46.221 -0.518 C47.121 -0.514 48.022 -0.511 48.95 -0.508 C49.627 -0.34 50.303 -0.173 51 0 C51.495 1.98 51.495 1.98 52 4 C34.51 4 17.02 4 -1 4 C-0.67 2.68 -0.34 1.36 0 0 Z " fill="#663916" transform="translate(38,56)"/>
<path d="M0 0 C0.864 0.002 1.727 0.004 2.617 0.006 C3.498 0.005 4.38 0.004 5.288 0.003 C7.157 0.003 9.026 0.004 10.895 0.009 C13.761 0.014 16.627 0.009 19.494 0.002 C21.306 0.003 23.117 0.004 24.929 0.006 C26.221 0.003 26.221 0.003 27.54 0 C33.609 0.024 33.609 0.024 35.839 1.139 C35.396 3.106 35.396 3.106 33.839 5.139 C30.751 5.551 28.022 5.699 24.929 5.67 C24.047 5.674 23.164 5.678 22.255 5.682 C20.388 5.685 18.521 5.677 16.654 5.66 C13.784 5.639 10.918 5.66 8.048 5.686 C6.238 5.683 4.427 5.678 2.617 5.67 C1.321 5.682 1.321 5.682 0 5.695 C-2.407 5.657 -2.407 5.657 -6.161 5.139 C-6.958 3.169 -6.958 3.169 -7.161 1.139 C-5.269 -0.753 -2.517 0.01 0 0 Z " fill="#653815" transform="translate(44.16062927246094,66.86105346679688)"/>
<path d="M0 0 C1.504 1.086 1.504 1.086 3 3 C3.168 6.427 2.93 9.742 2.715 13.164 C2.809 14.1 2.903 15.036 3 16 C4.874 16.916 4.874 16.916 7 17 C8.812 18.438 8.812 18.438 10 20 C9.67 20.66 9.34 21.32 9 22 C6.82 21.758 6.82 21.758 4.125 21.125 C1.272 20.468 -1.06 20 -4 20 C-6.51 16.235 -6.615 14.457 -6 10 C-4.041 8.286 -2.041 6.616 0 5 C0.504 2.287 0.504 2.287 0 0 Z " fill="#D83C25" transform="translate(53,23)"/>
<path d="M0 0 C2 2 2 2 2.125 4.625 C2.084 5.409 2.043 6.193 2 7 C2.66 7 3.32 7 4 7 C4.33 6.34 4.66 5.68 5 5 C4.453 8.375 3.945 10.082 2 13 C-1.71 13.707 -5.276 13.586 -9 13 C-11.875 10.812 -11.875 10.812 -13 8 C-12.188 5.25 -12.188 5.25 -10 3 C-6.5 2.312 -6.5 2.312 -3 2 C-2.01 1.34 -1.02 0.68 0 0 Z " fill="#FCD36D" transform="translate(68,43)"/>
<path d="M0 0 C6.625 -0.125 6.625 -0.125 10 1 C8.706 3.844 7.338 5.917 5.137 8.129 C4.579 8.689 4.022 9.249 3.447 9.826 C2.576 10.686 2.576 10.686 1.688 11.562 C0.834 12.428 0.834 12.428 -0.037 13.311 C-3.147 16.406 -6.081 18.934 -10 21 C-9.598 15.77 -8.945 13.452 -5 10 C-4.67 9.01 -4.34 8.02 -4 7 C-3.134 6.154 -2.267 5.309 -1.375 4.438 C-0.591 3.633 0.192 2.829 1 2 C0.67 1.34 0.34 0.68 0 0 Z " fill="#FED26B" transform="translate(88,81)"/>
<path d="M0 0 C11.55 0 23.1 0 35 0 C34.67 1.32 34.34 2.64 34 4 C31.435 4.424 29.292 4.56 26.719 4.531 C25.99 4.535 25.261 4.539 24.511 4.543 C22.967 4.546 21.424 4.538 19.88 4.521 C17.509 4.5 15.141 4.521 12.77 4.547 C11.273 4.544 9.777 4.539 8.281 4.531 C7.568 4.539 6.854 4.547 6.119 4.556 C4.127 4.518 4.127 4.518 1 4 C0.67 2.68 0.34 1.36 0 0 Z " fill="#613415" transform="translate(37,79)"/>
<path d="M0 0 C0.33 0 0.66 0 1 0 C1.054 2.125 1.093 4.25 1.125 6.375 C1.148 7.558 1.171 8.742 1.195 9.961 C1 13 1 13 -1 15 C-3.581 15.145 -6.049 15.187 -8.625 15.125 C-9.331 15.116 -10.038 15.107 -10.766 15.098 C-12.511 15.074 -14.255 15.038 -16 15 C-15.197 14.22 -14.394 13.44 -13.566 12.637 C-10.985 10.261 -10.985 10.261 -9.938 7.812 C-8.691 5.403 -7.528 4.892 -5 4 C-3.68 4 -2.36 4 -1 4 C-0.257 2.029 -0.257 2.029 0 0 Z " fill="#FEC24C" transform="translate(100,90)"/>
<path d="M0 0 C1.5 1.062 1.5 1.062 3 3 C3.496 6.895 3.58 9.095 1.438 12.438 C-1 14 -1 14 -4.625 13.938 C-5.739 13.958 -6.852 13.979 -8 14 C-9.545 16.401 -9.545 16.401 -10 19 C-12 18.812 -12 18.812 -14 18 C-14.25 15.625 -14.25 15.625 -14 13 C-14 12.01 -14 11.02 -14 10 C-10.7 10.66 -7.4 11.32 -4 12 C-4 11.01 -4 10.02 -4 9 C-4.99 8.67 -5.98 8.34 -7 8 C-7 7.67 -7 7.34 -7 7 C-6.216 6.938 -5.432 6.876 -4.625 6.812 C-3.759 6.544 -2.892 6.276 -2 6 C-0.616 3.016 -0.616 3.016 0 0 Z " fill="#BF3A1F" transform="translate(66,32)"/>
<path d="M0 0 C6.6 0 13.2 0 20 0 C20 0.99 20 1.98 20 3 C26.93 3 33.86 3 41 3 C41 3.33 41 3.66 41 4 C35.322 4.099 29.644 4.171 23.965 4.22 C22.032 4.24 20.098 4.267 18.165 4.302 C15.393 4.35 12.621 4.373 9.848 4.391 C8.978 4.411 8.108 4.432 7.212 4.453 C4.785 4.454 4.785 4.454 1 4 C0.67 2.68 0.34 1.36 0 0 Z " fill="#7E5126" transform="translate(37,68)"/>
<path d="M0 0 C2.668 -0.41 2.668 -0.41 6.188 -0.277 C7.443 -0.233 8.699 -0.188 9.992 -0.143 C10.649 -0.108 11.306 -0.074 11.983 -0.039 C13.991 0.062 15.998 0.126 18.008 0.186 C25.286 0.496 25.286 0.496 28 1 C28.33 1.99 28.66 2.98 29 4 C19.1 4 9.2 4 -1 4 C-0.67 2.68 -0.34 1.36 0 0 Z " fill="#70411A" transform="translate(38,56)"/>
<path d="M0 0 C-0.041 1.114 -0.082 2.227 -0.125 3.375 C-0.411 7.044 -0.411 7.044 2 9 C2.438 11.562 2.438 11.562 2 14 C-0.312 15.062 -0.312 15.062 -3 15 C-5.773 12.705 -5.991 11.071 -6.438 7.5 C-6 4 -6 4 -4.125 1.562 C-2 0 -2 0 0 0 Z " fill="#E7533A" transform="translate(53,29)"/>
<path d="M0 0 C1.221 5.372 1.221 5.372 0.188 8.312 C-1 10 -1 10 -3 11 C-5.688 8.875 -5.688 8.875 -8 6 C-7.938 3.25 -7.938 3.25 -7 1 C-4.537 -0.231 -2.72 -0.072 0 0 Z " fill="#F4614B" transform="translate(61,17)"/>
<path d="M0 0 C7.59 0 15.18 0 23 0 C22.67 0.99 22.34 1.98 22 3 C19.867 3.341 19.867 3.341 17.09 3.293 C15.606 3.278 15.606 3.278 14.092 3.264 C13.051 3.239 12.01 3.213 10.938 3.188 C9.893 3.174 8.848 3.16 7.771 3.146 C5.18 3.111 2.59 3.062 0 3 C0 2.01 0 1.02 0 0 Z " fill="#70411B" transform="translate(37,79)"/>
</svg>
